<svg xmlns="http://www.w3.org/2000/svg" style="display: none;"><symbol id="home-icon-silhouette" viewBox="0 0 495.398 495.398"><title>home-icon-silhouette</title><path d="M487.083,225.514l-75.08-75.08V63.704c0-15.682-12.708-28.391-28.413-28.391c-15.669,0-28.377,12.709-28.377,28.391 v29.941L299.31,37.74c-27.639-27.624-75.694-27.575-103.27,0.05L8.312,225.514c-11.082,11.104-11.082,29.071,0,40.158 c11.087,11.101,29.089,11.101,40.172,0l187.71-187.729c6.115-6.083,16.893-6.083,22.976-0.018l187.742,187.747 c5.567,5.551,12.825,8.312,20.081,8.312c7.271,0,14.541-2.764,20.091-8.312C498.17,254.586,498.17,236.619,487.083,225.514z"/><path d="M257.561,131.836c-5.454-5.451-14.285-5.451-19.723,0L72.712,296.913c-2.607,2.606-4.085,6.164-4.085,9.877v120.401 c0,28.253,22.908,51.16,51.16,51.16h81.754v-126.61h92.299v126.61h81.755c28.251,0,51.159-22.907,51.159-51.159V306.79 c0-3.713-1.465-7.271-4.085-9.877L257.561,131.836z"/></symbol><symbol id="medical-notes-symbol-of-a-list-paper-on-a-clipboard" viewBox="0 0 31.979 31.979"><title>medical-notes-symbol-of-a-list-paper-on-a-clipboard</title><path d="M21.945,6.06V5.359c0-0.796-0.646-1.441-1.441-1.441h-2.365c0.197-0.356,0.309-0.797,0.309-1.245 C18.447,1.2,17.249,0,15.777,0c-1.472,0-2.669,1.2-2.669,2.673c0,0.448,0.112,0.889,0.309,1.245h-1.94 c-0.796,0-1.441,0.645-1.441,1.441V6.06H6.822c-1.207,0-2.185,0.979-2.185,2.186v21.546c0,1.207,0.978,2.187,2.185,2.187h18.334 c1.207,0,2.186-0.979,2.186-2.187V8.246c0-1.207-0.979-2.186-2.186-2.186H21.945z M14.187,2.674c0-0.878,0.713-1.594,1.589-1.594 c0.878,0,1.591,0.716,1.591,1.594c0,0.502-0.234,0.933-0.6,1.245h-1.981C14.421,3.606,14.187,3.176,14.187,2.674z M25.156,28.492 c0,0.742-0.602,1.344-1.344,1.344H8.166c-0.742,0-1.344-0.602-1.344-1.344V9.59c0-0.743,0.602-1.344,1.344-1.344h1.868 c0,0.591,0.479,1.071,1.07,1.071h9.769c0.592,0,1.07-0.479,1.07-1.071h1.869c0.741,0,1.344,0.602,1.344,1.344V28.492 L25.156,28.492z"/><circle cx="10.852" cy="13.098" r="1.899"/><path d="M21.656,12.038H15.18c-0.596,0-1.08,0.475-1.08,1.071c0,0.596,0.483,1.071,1.08,1.071h6.478 c0.596,0,1.078-0.475,1.078-1.071C22.736,12.513,22.253,12.038,21.656,12.038z"/><circle cx="10.852" cy="18.485" r="1.899"/><path d="M21.656,17.391H15.18c-0.596,0-1.08,0.498-1.08,1.094s0.483,1.092,1.08,1.092h6.478c0.596,0,1.078-0.496,1.078-1.092 S22.253,17.391,21.656,17.391z"/><circle cx="10.852" cy="24.242" r="1.898"/><path d="M21.656,23.145H15.18c-0.596,0-1.08,0.498-1.08,1.094s0.483,1.092,1.08,1.092h6.478c0.596,0,1.078-0.497,1.078-1.092 C22.736,23.643,22.253,23.145,21.656,23.145z"/></symbol><symbol id="line-chart" viewBox="0 0 486.742 486.742"><title>line-chart</title><path d="M33,362.371v78.9c0,4.8,3.9,8.8,8.8,8.8h61c4.8,0,8.8-3.9,8.8-8.8v-138.8l-44.3,44.3 C57.9,356.071,45.9,361.471,33,362.371z"/><path d="M142,301.471v139.8c0,4.8,3.9,8.8,8.8,8.8h61c4.8,0,8.8-3.9,8.8-8.8v-82.3c-13.9-0.3-26.9-5.8-36.7-15.6L142,301.471z"/><path d="M251,350.271v91c0,4.8,3.9,8.8,8.8,8.8h61c4.8,0,8.8-3.9,8.8-8.8v-167.9l-69.9,69.9 C257,345.971,254.1,348.271,251,350.271z"/><path d="M432.7,170.171l-72.7,72.7v198.4c0,4.8,3.9,8.8,8.8,8.8h61c4.8,0,8.8-3.9,8.8-8.8v-265.6c-2-1.7-3.5-3.2-4.6-4.2 L432.7,170.171z"/><path d="M482.6,41.371c-2.9-3.1-7.3-4.7-12.9-4.7c-0.5,0-1.1,0-1.6,0c-28.4,1.3-56.7,2.7-85.1,4c-3.8,0.2-9,0.4-13.1,4.5 c-1.3,1.3-2.3,2.8-3.1,4.6c-4.2,9.1,1.7,15,4.5,17.8l7.1,7.2c4.9,5,9.9,10,14.9,14.9l-171.6,171.7l-77.1-77.1 c-4.6-4.6-10.8-7.2-17.4-7.2c-6.6,0-12.7,2.6-17.3,7.2L7.2,286.871c-9.6,9.6-9.6,25.1,0,34.7l4.6,4.6c4.6,4.6,10.8,7.2,17.4,7.2 s12.7-2.6,17.3-7.2l80.7-80.7l77.1,77.1c4.6,4.6,10.8,7.2,17.4,7.2c6.6,0,12.7-2.6,17.4-7.2l193.6-193.6l21.9,21.8 c2.6,2.6,6.2,6.2,11.7,6.2c2.3,0,4.6-0.6,7-1.9c1.6-0.9,3-1.9,4.2-3.1c4.3-4.3,5.1-9.8,5.3-14.1c0.8-18.4,1.7-36.8,2.6-55.3 l1.3-27.7C487,49.071,485.7,44.571,482.6,41.371z"/></symbol><symbol id="magnifying-glass" viewBox="0 0 30.239 30.239"><title>magnifying-glass</title><path d="M20.194,3.46c-4.613-4.613-12.121-4.613-16.734,0c-4.612,4.614-4.612,12.121,0,16.735 c4.108,4.107,10.506,4.547,15.116,1.34c0.097,0.459,0.319,0.897,0.676,1.254l6.718,6.718c0.979,0.977,2.561,0.977,3.535,0 c0.978-0.978,0.978-2.56,0-3.535l-6.718-6.72c-0.355-0.354-0.794-0.577-1.253-0.674C24.743,13.967,24.303,7.57,20.194,3.46z M18.073,18.074c-3.444,3.444-9.049,3.444-12.492,0c-3.442-3.444-3.442-9.048,0-12.492c3.443-3.443,9.048-3.443,12.492,0 C21.517,9.026,21.517,14.63,18.073,18.074z"/></symbol><symbol id="trash" viewBox="0 0 438.529 438.529"><title>trash</title><path d="M417.689,75.654c-1.711-1.709-3.901-2.568-6.563-2.568h-88.224L302.917,25.41c-2.854-7.044-7.994-13.04-15.413-17.989 C280.078,2.473,272.556,0,264.945,0h-91.363c-7.611,0-15.131,2.473-22.554,7.421c-7.424,4.949-12.563,10.944-15.419,17.989 l-19.985,47.676h-88.22c-2.667,0-4.853,0.859-6.567,2.568c-1.709,1.713-2.568,3.903-2.568,6.567v18.274 c0,2.664,0.855,4.854,2.568,6.564c1.714,1.712,3.904,2.568,6.567,2.568h27.406v271.8c0,15.803,4.473,29.266,13.418,40.398 c8.947,11.139,19.701,16.703,32.264,16.703h237.542c12.566,0,23.319-5.756,32.265-17.268c8.945-11.52,13.415-25.174,13.415-40.971 V109.627h27.411c2.662,0,4.853-0.856,6.563-2.568c1.708-1.709,2.57-3.9,2.57-6.564V82.221 C420.26,79.557,419.397,77.367,417.689,75.654z M169.301,39.678c1.331-1.712,2.95-2.762,4.853-3.14h90.504 c1.903,0.381,3.525,1.43,4.854,3.14l13.709,33.404H155.311L169.301,39.678z M347.173,380.291c0,4.186-0.664,8.042-1.999,11.561 c-1.334,3.518-2.717,6.088-4.141,7.706c-1.431,1.622-2.423,2.427-2.998,2.427H100.493c-0.571,0-1.565-0.805-2.996-2.427 c-1.429-1.618-2.81-4.188-4.143-7.706c-1.331-3.519-1.997-7.379-1.997-11.561V109.627h255.815V380.291z"/><path d="M137.04,347.172h18.271c2.667,0,4.858-0.855,6.567-2.567c1.709-1.718,2.568-3.901,2.568-6.57V173.581 c0-2.663-0.859-4.853-2.568-6.567c-1.714-1.709-3.899-2.565-6.567-2.565H137.04c-2.667,0-4.854,0.855-6.567,2.565 c-1.711,1.714-2.568,3.904-2.568,6.567v164.454c0,2.669,0.854,4.853,2.568,6.57C132.186,346.316,134.373,347.172,137.04,347.172z"/><path d="M210.129,347.172h18.271c2.666,0,4.856-0.855,6.564-2.567c1.718-1.718,2.569-3.901,2.569-6.57V173.581 c0-2.663-0.852-4.853-2.569-6.567c-1.708-1.709-3.898-2.565-6.564-2.565h-18.271c-2.664,0-4.854,0.855-6.567,2.565 c-1.714,1.714-2.568,3.904-2.568,6.567v164.454c0,2.669,0.854,4.853,2.568,6.57C205.274,346.316,207.465,347.172,210.129,347.172z "/><path d="M283.22,347.172h18.268c2.669,0,4.859-0.855,6.57-2.567c1.711-1.718,2.562-3.901,2.562-6.57V173.581 c0-2.663-0.852-4.853-2.562-6.567c-1.711-1.709-3.901-2.565-6.57-2.565H283.22c-2.67,0-4.853,0.855-6.571,2.565 c-1.711,1.714-2.566,3.904-2.566,6.567v164.454c0,2.669,0.855,4.853,2.566,6.57C278.367,346.316,280.55,347.172,283.22,347.172z"/></symbol><symbol id="two-settings-cogwheels" viewBox="0 0 217.794 217.794"><title>two-settings-cogwheels</title><path d="M113.595,133.642l-5.932-13.169c5.655-4.151,10.512-9.315,14.307-15.209l13.507,5.118c2.583,0.979,5.469-0.322,6.447-2.904 l4.964-13.103c0.47-1.24,0.428-2.616-0.117-3.825c-0.545-1.209-1.547-2.152-2.788-2.622l-13.507-5.118 c1.064-6.93,0.848-14.014-0.637-20.871l13.169-5.932c1.209-0.545,2.152-1.547,2.622-2.788c0.47-1.24,0.428-2.616-0.117-3.825 l-5.755-12.775c-1.134-2.518-4.096-3.638-6.612-2.505l-13.169,5.932c-4.151-5.655-9.315-10.512-15.209-14.307l5.118-13.507 c0.978-2.582-0.322-5.469-2.904-6.447L93.88,0.82c-1.239-0.469-2.615-0.428-3.825,0.117c-1.209,0.545-2.152,1.547-2.622,2.788 l-5.117,13.506c-6.937-1.07-14.033-0.849-20.872,0.636L55.513,4.699c-0.545-1.209-1.547-2.152-2.788-2.622 c-1.239-0.469-2.616-0.428-3.825,0.117L36.124,7.949c-2.518,1.134-3.639,4.094-2.505,6.612l5.932,13.169 c-5.655,4.151-10.512,9.315-14.307,15.209l-13.507-5.118c-1.239-0.469-2.615-0.427-3.825,0.117 c-1.209,0.545-2.152,1.547-2.622,2.788L0.326,53.828c-0.978,2.582,0.322,5.469,2.904,6.447l13.507,5.118 c-1.064,6.929-0.848,14.015,0.637,20.871L4.204,92.196c-1.209,0.545-2.152,1.547-2.622,2.788c-0.47,1.24-0.428,2.616,0.117,3.825 l5.755,12.775c0.544,1.209,1.547,2.152,2.787,2.622c1.241,0.47,2.616,0.429,3.825-0.117l13.169-5.932 c4.151,5.656,9.314,10.512,15.209,14.307l-5.118,13.507c-0.978,2.582,0.322,5.469,2.904,6.447l13.103,4.964 c0.571,0.216,1.172,0.324,1.771,0.324c0.701,0,1.402-0.147,2.054-0.441c1.209-0.545,2.152-1.547,2.622-2.788l5.117-13.506 c6.937,1.069,14.034,0.849,20.872-0.636l5.931,13.168c0.545,1.209,1.547,2.152,2.788,2.622c1.24,0.47,2.617,0.429,3.825-0.117 l12.775-5.754C113.607,139.12,114.729,136.16,113.595,133.642z M105.309,86.113c-4.963,13.1-17.706,21.901-31.709,21.901 c-4.096,0-8.135-0.744-12.005-2.21c-8.468-3.208-15.18-9.522-18.899-17.779c-3.719-8.256-4-17.467-0.792-25.935 c4.963-13.1,17.706-21.901,31.709-21.901c4.096,0,8.135,0.744,12.005,2.21c8.468,3.208,15.18,9.522,18.899,17.778 C108.237,68.434,108.518,77.645,105.309,86.113z M216.478,154.389c-0.896-0.977-2.145-1.558-3.469-1.615l-9.418-0.404 c-0.867-4.445-2.433-8.736-4.633-12.697l6.945-6.374c2.035-1.867,2.17-5.03,0.303-7.064l-6.896-7.514 c-0.896-0.977-2.145-1.558-3.47-1.615c-1.322-0.049-2.618,0.416-3.595,1.312l-6.944,6.374c-3.759-2.531-7.9-4.458-12.254-5.702 l0.404-9.418c0.118-2.759-2.023-5.091-4.782-5.209l-10.189-0.437c-2.745-0.104-5.091,2.023-5.209,4.781l-0.404,9.418 c-4.444,0.867-8.735,2.433-12.697,4.632l-6.374-6.945c-0.896-0.977-2.145-1.558-3.469-1.615c-1.324-0.054-2.618,0.416-3.595,1.312 l-7.514,6.896c-2.035,1.867-2.17,5.03-0.303,7.064l6.374,6.945c-2.531,3.759-4.458,7.899-5.702,12.254l-9.417-0.404 c-2.747-0.111-5.092,2.022-5.21,4.781l-0.437,10.189c-0.057,1.325,0.415,2.618,1.312,3.595c0.896,0.977,2.145,1.558,3.47,1.615 l9.417,0.403c0.867,4.445,2.433,8.736,4.632,12.698l-6.944,6.374c-0.977,0.896-1.558,2.145-1.615,3.469 c-0.057,1.325,0.415,2.618,1.312,3.595l6.896,7.514c0.896,0.977,2.145,1.558,3.47,1.615c1.319,0.053,2.618-0.416,3.595-1.312 l6.944-6.374c3.759,2.531,7.9,4.458,12.254,5.702l-0.404,9.418c-0.118,2.759,2.022,5.091,4.781,5.209l10.189,0.437 c0.072,0.003,0.143,0.004,0.214,0.004c1.25,0,2.457-0.468,3.381-1.316c0.977-0.896,1.558-2.145,1.615-3.469l0.404-9.418 c4.444-0.867,8.735-2.433,12.697-4.632l6.374,6.945c0.896,0.977,2.145,1.558,3.469,1.615c1.33,0.058,2.619-0.416,3.595-1.312 l7.514-6.896c2.035-1.867,2.17-5.03,0.303-7.064l-6.374-6.945c2.531-3.759,4.458-7.899,5.702-12.254l9.417,0.404 c2.756,0.106,5.091-2.022,5.21-4.781l0.437-10.189C217.847,156.659,217.375,155.366,216.478,154.389z M160.157,183.953 c-12.844-0.55-22.846-11.448-22.295-24.292c0.536-12.514,10.759-22.317,23.273-22.317c0.338,0,0.678,0.007,1.019,0.022 c12.844,0.551,22.846,11.448,22.295,24.292C183.898,174.511,173.106,184.497,160.157,183.953z"/></symbol><symbol id="shopping-cart" viewBox="0 0 510 510"><title>shopping-cart</title><path d="M153,408c-28.05,0-51,22.95-51,51s22.95,51,51,51s51-22.95,51-51S181.05,408,153,408z M0,0v51h51l91.8,193.8L107.1,306 c-2.55,7.65-5.1,17.85-5.1,25.5c0,28.05,22.95,51,51,51h306v-51H163.2c-2.55,0-5.1-2.55-5.1-5.1v-2.551l22.95-43.35h188.7 c20.4,0,35.7-10.2,43.35-25.5L504.9,89.25c5.1-5.1,5.1-7.65,5.1-12.75c0-15.3-10.2-25.5-25.5-25.5H107.1L84.15,0H0z M408,408 c-28.05,0-51,22.95-51,51s22.95,51,51,51s51-22.95,51-51S436.05,408,408,408z"/></symbol><symbol id="pencil-edit-button" viewBox="0 0 528.899 528.899"><title>pencil-edit-button</title><path d="M328.883,89.125l107.59,107.589l-272.34,272.34L56.604,361.465L328.883,89.125z M518.113,63.177l-47.981-47.981 c-18.543-18.543-48.653-18.543-67.259,0l-45.961,45.961l107.59,107.59l53.611-53.611 C532.495,100.753,532.495,77.559,518.113,63.177z M0.3,512.69c-1.958,8.812,5.998,16.708,14.811,14.565l119.891-29.069 L27.473,390.597L0.3,512.69z"/></symbol><symbol id="arrow-point-to-right" viewBox="0 0 451.846 451.847"><title>arrow-point-to-right</title><path d="M345.441,248.292L151.154,442.573c-12.359,12.365-32.397,12.365-44.75,0c-12.354-12.354-12.354-32.391,0-44.744 L278.318,225.92L106.409,54.017c-12.354-12.359-12.354-32.394,0-44.748c12.354-12.359,32.391-12.359,44.75,0l194.287,194.284 c6.177,6.18,9.262,14.271,9.262,22.366C354.708,234.018,351.617,242.115,345.441,248.292z"/></symbol><symbol id="arrow-down-sign-to-navigate" viewBox="0 0 451.847 451.847"><title>arrow-down-sign-to-navigate</title><path d="M225.923,354.706c-8.098,0-16.195-3.092-22.369-9.263L9.27,151.157c-12.359-12.359-12.359-32.397,0-44.751 c12.354-12.354,32.388-12.354,44.748,0l171.905,171.915l171.906-171.909c12.359-12.354,32.391-12.354,44.744,0 c12.365,12.354,12.365,32.392,0,44.751L248.292,345.449C242.115,351.621,234.018,354.706,225.923,354.706z"/></symbol><symbol id="refresh-button" viewBox="0 0 487.23 487.23"><title>refresh-button</title><path d="M55.323,203.641c15.664,0,29.813-9.405,35.872-23.854c25.017-59.604,83.842-101.61,152.42-101.61 c37.797,0,72.449,12.955,100.23,34.442l-21.775,3.371c-7.438,1.153-13.224,7.054-14.232,14.512 c-1.01,7.454,3.008,14.686,9.867,17.768l119.746,53.872c5.249,2.357,11.33,1.904,16.168-1.205 c4.83-3.114,7.764-8.458,7.796-14.208l0.621-131.943c0.042-7.506-4.851-14.144-12.024-16.332 c-7.185-2.188-14.947,0.589-19.104,6.837l-16.505,24.805C370.398,26.778,310.1,0,243.615,0C142.806,0,56.133,61.562,19.167,149.06 c-5.134,12.128-3.84,26.015,3.429,36.987C29.865,197.023,42.152,203.641,55.323,203.641z"/><path d="M464.635,301.184c-7.27-10.977-19.558-17.594-32.728-17.594c-15.664,0-29.813,9.405-35.872,23.854 c-25.018,59.604-83.843,101.61-152.42,101.61c-37.798,0-72.45-12.955-100.232-34.442l21.776-3.369 c7.437-1.153,13.223-7.055,14.233-14.514c1.009-7.453-3.008-14.686-9.867-17.768L49.779,285.089 c-5.25-2.356-11.33-1.905-16.169,1.205c-4.829,3.114-7.764,8.458-7.795,14.207l-0.622,131.943 c-0.042,7.506,4.85,14.144,12.024,16.332c7.185,2.188,14.948-0.59,19.104-6.839l16.505-24.805 c44.004,43.32,104.303,70.098,170.788,70.098c100.811,0,187.481-61.561,224.446-149.059 C473.197,326.043,471.903,312.157,464.635,301.184z"/></symbol><symbol id="back-arrow" viewBox="0 0 459 459"><title>back-arrow</title><path d="M178.5,140.25v-102L0,216.75l178.5,178.5V290.7c127.5,0,216.75,40.8,280.5,130.05C433.5,293.25,357,165.75,178.5,140.25z"/></symbol><symbol id="user" viewBox="0 0 299.997 299.997"><title>user</title><path d="M149.996,0C67.157,0,0.001,67.158,0.001,149.997c0,82.837,67.156,150,149.995,150s150-67.163,150-150 C299.996,67.156,232.835,0,149.996,0z M150.453,220.763v-0.002h-0.916H85.465c0-46.856,41.152-46.845,50.284-59.097l1.045-5.587 c-12.83-6.502-21.887-22.178-21.887-40.512c0-24.154,15.712-43.738,35.089-43.738c19.377,0,35.089,19.584,35.089,43.738 c0,18.178-8.896,33.756-21.555,40.361l1.19,6.349c10.019,11.658,49.802,12.418,49.802,58.488H150.453z"/></symbol><symbol id="help" viewBox="0 0 512 512"><title>help</title><path d="m512 346.5c0-63.535156-36.449219-120.238281-91.039062-147.820312-1.695313 121.820312-100.460938 220.585937-222.28125 222.28125 27.582031 54.589843 84.285156 91.039062 147.820312 91.039062 29.789062 0 58.757812-7.933594 84.210938-23.007812l80.566406 22.285156-22.285156-80.566406c15.074218-25.453126 23.007812-54.421876 23.007812-84.210938zm0 0"/><path d="m391 195.5c0-107.800781-87.699219-195.5-195.5-195.5s-195.5 87.699219-195.5 195.5c0 35.132812 9.351562 69.339844 27.109375 99.371094l-26.390625 95.40625 95.410156-26.386719c30.03125 17.757813 64.238282 27.109375 99.371094 27.109375 107.800781 0 195.5-87.699219 195.5-195.5zm-225.5-45.5h-30c0-33.085938 26.914062-60 60-60s60 26.914062 60 60c0 16.792969-7.109375 32.933594-19.511719 44.277344l-25.488281 23.328125v23.394531h-30v-36.605469l35.234375-32.25c6.296875-5.761719 9.765625-13.625 9.765625-22.144531 0-16.542969-13.457031-30-30-30s-30 13.457031-30 30zm15 121h30v30h-30zm0 0"/></symbol><symbol id="new-user" viewBox="0 0 612 612"><title>new-user</title><path d="M269.272,310.198c86.177-0.005,117.184-86.291,125.301-157.169C404.572,65.715,363.282,0,269.272,0 C175.274,0,133.963,65.71,143.97,153.029C152.095,223.907,183.093,310.204,269.272,310.198z"/><path d="M457.707,346.115c2.773,0,5.528,0.083,8.264,0.235c-4.101-5.85-8.848-11.01-14.403-15.158 c-16.559-12.359-38.005-16.414-56.964-23.864c-9.229-3.625-17.493-7.226-25.251-11.326 c-26.184,28.715-60.329,43.736-100.091,43.74c-39.749,0-73.891-15.021-100.072-43.74c-7.758,4.101-16.024,7.701-25.251,11.326 c-18.959,7.451-40.404,11.505-56.964,23.864c-28.638,21.375-36.039,69.46-41.854,102.26c-4.799,27.076-8.023,54.707-8.964,82.209 c-0.729,21.303,9.789,24.29,27.611,30.721c22.315,8.048,45.356,14.023,68.552,18.921c44.797,9.46,90.973,16.729,136.95,17.054 c22.278-0.159,44.601-1.956,66.792-4.833c-16.431-23.807-26.068-52.645-26.068-83.695 C309.995,412.378,376.258,346.115,457.707,346.115z"/><path d="M457.707,375.658c-65.262,0-118.171,52.909-118.171,118.171S392.444,612,457.707,612s118.172-52.909,118.172-118.171 C575.878,428.566,522.969,375.658,457.707,375.658z M509.407,514.103h-31.425v31.424c0,11.198-9.077,20.276-20.274,20.276 c-11.198,0-20.276-9.078-20.276-20.276v-31.424h-31.424c-11.198,0-20.276-9.077-20.276-20.276 c0-11.198,9.077-20.276,20.276-20.276h31.424v-31.424c0-11.198,9.078-20.276,20.276-20.276c11.198,0,20.274,9.078,20.274,20.276 v31.424h31.425c11.198,0,20.276,9.078,20.276,20.276C529.682,505.027,520.606,514.103,509.407,514.103z"/></symbol><symbol id="give-money" viewBox="0 0 354.796 354.796"><title>give-money</title><g> <path d="M265.442,109.092c-10.602-4.25-13.665-6.82-13.665-11.461c0-3.714,2.813-8.053,10.744-8.053 c7.015,0,12.395,2.766,12.443,2.79c0.566,0.302,1.201,0.463,1.83,0.463c1.535,0,2.893-0.929,3.456-2.367l1.927-4.926 c0.671-1.795-0.347-3.359-1.645-3.92c-4.319-1.88-12.76-3.335-12.846-3.35c-0.136-0.024-0.609-0.125-0.609-0.678l-0.027-7.146 c0-2.152-1.797-3.904-4.003-3.904h-3.457c-2.204,0-4,1.751-4,3.905l0.009,7.513c0,0.576-0.624,0.826-0.852,0.879 c-10.655,2.538-17.314,10.343-17.314,20.188c0,12.273,10.145,17.819,21.099,21.982c8.757,3.438,12.329,6.924,12.329,12.037 c0,5.564-5.059,9.45-12.307,9.45c-6.189,0-14.565-3.923-14.648-3.963c-0.536-0.254-1.104-0.382-1.688-0.382 c-1.594,0-2.982,0.964-3.537,2.457l-1.84,4.982c-0.654,1.86,0.353,3.37,1.642,4.042c5.144,2.679,15.098,4.249,15.541,4.318 c0.119,0.017,0.725,0.23,0.725,0.784v7.48c0,2.152,1.797,3.904,4.004,3.904h3.572c2.208,0,4.005-1.751,4.005-3.904v-7.872 c0-0.736,0.543-0.801,0.655-0.828c11.351-2.55,18.343-10.855,18.343-21.283C285.325,121.518,279.377,114.597,265.442,109.092z"/> <path d="M260.979,22.509c-51.816,0-93.818,42.005-93.818,93.818c0,51.814,42.002,93.82,93.818,93.82 c51.814,0,93.817-42.006,93.817-93.82C354.796,64.514,312.793,22.509,260.979,22.509z M260.979,188.404 c-39.808,0-72.076-32.271-72.076-72.076s32.268-72.075,72.076-72.075c39.806,0,72.073,32.27,72.073,72.075 S300.785,188.404,260.979,188.404z"/> </g><g> <path d="M335.733,255.61c-19.95,11.011-47.389,21.192-74.753,25.484c-24.346,3.818-70.148-5.39-70.148-16.265 c0-4.121,40.17,10.154,64.469,3.671c18.633-4.971,15.988-22.401,5.853-24.7c-10.076-2.287-69.108-23.913-94.323-24.659 c-11.878-0.351-41.203,4.131-55.393,6.442c-4.861,0.791-7.909,0.704-8.213,5.356c-1.412,21.62-4.195,65.832-5.712,88.926 c-0.032,0.488,0.646,7.05,6.061,2.432c5.927-5.054,14.24-10.656,21.929-8.912c12.063,2.737,116.424,21.856,130.819,18.51 c20.593-4.787,78.888-39.334,90.065-50.072C363.711,265.176,350.244,247.601,335.733,255.61z"/> <path d="M74.426,224.74l-54.672-2.694c-4.221-0.208-8.532,2.973-9.581,7.066l-9.941,90.255c-1.048,4.094,1.55,7.578,5.773,7.741 l60.59-0.006c4.224,0.163,7.942-3.151,8.266-7.365l6.654-86.958C81.837,228.566,78.647,224.948,74.426,224.74z M42.24,315.145 c-8.349,0-15.116-6.768-15.116-15.116c0-8.349,6.768-15.116,15.116-15.116s15.116,6.768,15.116,15.116 C57.356,308.378,50.589,315.145,42.24,315.145z"/> </g></symbol></svg>